<?xml version="1.0" encoding="utf-8"?>
<!-- Generator: Adobe Illustrator 18.1.1, SVG Export Plug-In . SVG Version: 6.00 Build 0)  -->
<!DOCTYPE svg PUBLIC "-//W3C//DTD SVG 1.1//EN" "http://www.w3.org/Graphics/SVG/1.1/DTD/svg11.dtd">
<svg version="1.1" id="图层_1" xmlns="http://www.w3.org/2000/svg" xmlns:xlink="http://www.w3.org/1999/xlink" x="0px" y="0px"
	 viewBox="0 0 500 500" enable-background="new 0 0 500 500" xml:space="preserve">
<g>
	<path fill="#272636" d="M402.8,308.1c0,17,13.7,31.2,30.5,31.2c17,0,30.5-14.2,30.5-31.2V187.7c0-17.3-13.5-31-30.5-31
		c-16.8,0-30.5,13.7-30.5,31V308.1L402.8,308.1z M293.9,85.6c0-8.1,6.9-14.7,15-14.7c8.4,0,15.2,6.6,15.2,14.7c0,8.4-6.9,15-15.2,15
		C300.8,100.6,293.9,94,293.9,85.6L293.9,85.6z M178.2,85.6c0-8.1,6.6-14.7,14.7-14.7c8.4,0,15,6.6,15,14.7c0,8.4-6.6,15-15,15
		C184.7,100.6,178.2,94,178.2,85.6L178.2,85.6z M115.4,378.1c0,13.2,10.4,23.9,23.9,23.9h26.9v67c0,16.8,13.2,31,30.5,31
		c16.5,0,30.5-14.2,30.5-31v-67h47.2v67c0,16.8,12.9,31,30.2,31c17,0,30.5-14.2,30.5-31v-67H362c13.5,0,23.9-10.7,23.9-23.9V157.5
		H115.4V378.1L115.4,378.1z M385.3,138.2c-4.1-41.6-31.5-76.4-71.1-94.7l24.9-36.3c1.6-2.4,1.3-5.3-0.8-6.4c-2-1.3-4.3-0.5-6.1,1.5
		l-26.2,37.6c-17.5-6.3-36-10.4-56.1-10.4c-20.1,0-39.1,4.1-56.4,10.4L168,2.4c-1.8-2-4.1-3.3-6.1-1.5c-2,1.3-2.7,4-1,6.4L186,43.5
		c-39.6,18.8-67.5,52.8-71.1,94.7H385.3L385.3,138.2z M36.2,308.1c0,17,13.2,31.2,30.5,31.2c16.5,0,30.5-14.2,30.5-31.2V187.7
		c0-17.3-14-31-30.5-31c-17.3,0-30.5,13.7-30.5,31V308.1L36.2,308.1z M36.2,308.1"/>
</g>
</svg>
