<?xml version="1.0" encoding="utf-8"?>
<!-- Generator: Adobe Illustrator 18.1.1, SVG Export Plug-In . SVG Version: 6.00 Build 0)  -->
<!DOCTYPE svg PUBLIC "-//W3C//DTD SVG 1.1//EN" "http://www.w3.org/Graphics/SVG/1.1/DTD/svg11.dtd">
<svg version="1.1" id="图层_1" xmlns="http://www.w3.org/2000/svg" xmlns:xlink="http://www.w3.org/1999/xlink" x="0px" y="0px"
	 viewBox="0 0 500 500" enable-background="new 0 0 500 500" xml:space="preserve">
<g>
	<g>
		<path fill="#272636" d="M394.8,261.6c-0.6-64.3,54.9-95.3,57.4-96.9c-31.3-43.6-79.8-49.7-97.1-50.3
			c-41.3-3.9-80.7,23.3-101.6,23.3c-21,0-53.3-22.7-87.6-22c-45,0.6-86.6,25.1-109.8,63.7C9.4,257.3,44.2,372.6,89.8,435.6
			c22.3,30.9,48.9,65.6,83.8,64.3c33.7-1.2,46.3-20.9,86.9-20.9c40.6-0.1,52.1,20.8,87.6,20.2c36.2-0.7,59.1-31.6,81.3-62.5
			c25.5-35.8,36.1-70.5,36.6-72.3C465.3,364.1,395.6,338.5,394.8,261.6z M319.9,81.2c18.5-21.5,31-51.4,27.6-81.2
			c-26.7,1-59.1,17.1-78.2,38.5c-17.2,19-32.2,49.5-28,78.7C271,119.5,301.4,102.7,319.9,81.2z"/>
	</g>
</g>
</svg>
