<?xml version="1.0" encoding="utf-8"?>
<!-- Generator: Adobe Illustrator 18.1.1, SVG Export Plug-In . SVG Version: 6.00 Build 0)  -->
<!DOCTYPE svg PUBLIC "-//W3C//DTD SVG 1.1//EN" "http://www.w3.org/Graphics/SVG/1.1/DTD/svg11.dtd">
<svg version="1.1" id="图层_1" xmlns="http://www.w3.org/2000/svg" xmlns:xlink="http://www.w3.org/1999/xlink" x="0px" y="0px"
	 viewBox="0 0 200 200" enable-background="new 0 0 200 200" xml:space="preserve">
<g>
	<path fill="#0C0B0B" d="M159.5,2h-119C29.6,2,21,10.6,21,21.5v130.2c-1,1.3-1,2.8-1,4.3s0,3,1,4.3v19.9c0,10.9,8.6,19.8,19.5,19.8
		h119c10.9,0,19.5-8.9,19.5-19.8V21.5C179,10.6,170.4,2,159.5,2z M159.5,22l0,124H41V22H159.5z M41,180v-14h118v14H41z M159,190.1
		V180h0.5L159,190.1z"/>
	<path fill="#0C0B0B" d="M79.2,67h59.5c5.5,0,9.9-4.5,9.9-10c0-5.5-4.4-10-9.9-10H79.2c-5.5,0-9.9,4.5-9.9,10
		C69.3,62.5,73.7,67,79.2,67z"/>
</g>
</svg>
