<?xml version="1.0" encoding="utf-8"?>
<!-- Generator: Adobe Illustrator 18.0.0, SVG Export Plug-In . SVG Version: 6.00 Build 0)  -->
<!DOCTYPE svg PUBLIC "-//W3C//DTD SVG 1.1//EN" "http://www.w3.org/Graphics/SVG/1.1/DTD/svg11.dtd">
<svg version="1.1" id="图层_1" xmlns="http://www.w3.org/2000/svg" xmlns:xlink="http://www.w3.org/1999/xlink" x="0px" y="0px"
	 viewBox="0 0 14 14" enable-background="new 0 0 14 14" xml:space="preserve">
<path fill="#0C0C0C" d="M13.4,13.5L12,13.9c-0.7,0.2-0.7,0.2-0.9-0.6L11,12.7l2.8-0.8l0.1,0.4C14.1,13.3,14.1,13.3,13.4,13.5
	L13.4,13.5L13.4,13.5z M8.9,5.6C8.7,4.9,8.7,4.8,9.5,4.7l1.4-0.3c0.7-0.2,0.8-0.2,0.9,0.4l1.7,6.6l-3,0.7L8.9,5.6L8.9,5.6L8.9,5.6z
	 M7,14H6c-0.8,0-1,0-1-0.8V2h3v11.2C8,14,7.9,14,7,14L7,14L7,14z M5,0.6C5,0,5.2,0,6,0H7c0.8,0,1,0,1,0.6V1H5V0.6L5,0.6L5,0.6z
	 M3.2,14H0.8C0,14,0,14,0,13.5V13h4v0.5C4,14,4,14,3.2,14L3.2,14L3.2,14z M4,13H0H4z M0,6h4v6H0V6L0,6L0,6z M0,3.9C0,3,0,3,0.8,3
	h2.3C4,3,4,3,4,3.9V5H0V3.9L0,3.9L0,3.9z M0,3.9"/>
</svg>
