<?xml version="1.0" encoding="utf-8"?>
<!-- Generator: Adobe Illustrator 18.1.1, SVG Export Plug-In . SVG Version: 6.00 Build 0)  -->
<!DOCTYPE svg PUBLIC "-//W3C//DTD SVG 1.1//EN" "http://www.w3.org/Graphics/SVG/1.1/DTD/svg11.dtd">
<svg version="1.1" id="图层_1" xmlns="http://www.w3.org/2000/svg" xmlns:xlink="http://www.w3.org/1999/xlink" x="0px" y="0px"
	 viewBox="0 0 500 500" enable-background="new 0 0 500 500" xml:space="preserve">
<g>
	<path fill="#272636" d="M500,261.1c0-37.4-9.1-72.6-25.2-103.6c4.5-11.6,9.9-27.5,15.7-48.9C509.3,39.6,466-1.5,399.5,5.1
		c-40.4,4.1-78.4,15.1-115.2,31.6c-2.9-0.1-5.9-0.2-8.9-0.2c-110.6,0-202.5,79.9-221.1,185.1c46.2-66.7,113.6-102.1,113.6-102.1
		c-46,48.2-85.7,95.6-115.2,145.7c-0.6,0.9-1.1,1.8-1.7,2.7C26.4,310.3,9.2,354.6,1.8,402.7c-10.2,66,23,101.3,93.9,91.1
		c24.4-3.5,68.5-24.7,81-31c29.8,14.6,63.3,22.8,98.7,22.8c97.8,0,181-62.5,211.8-149.7H365.7c-17.2,30-49.7,50.3-86.9,50.3
		c-53.6,0-97.4-42.2-99.9-95.3h319.2C499.4,281.2,500,271.2,500,261.1L500,261.1z M97.1,477.5c-37.9,4-86.9-37.3-31.1-135
		c18,46.3,50.9,85.2,92.9,110.7C147.3,459.7,117.5,475.4,97.1,477.5L97.1,477.5z M179.6,224.3c6.3-49.2,48.3-87.1,99.2-87.1
		c50.9,0,92.9,38,99.2,87.1H179.6L179.6,224.3z M359.5,52.8c94.7-44.4,129.2,3,118.7,51.4c-1.4,6.7-6.7,24.4-11.2,39.7
		C442,103.1,404.4,70.9,359.5,52.8L359.5,52.8z M359.5,52.8"/>
</g>
</svg>
