<?xml version="1.0" encoding="utf-8"?>
<!-- Generator: Adobe Illustrator 18.0.0, SVG Export Plug-In . SVG Version: 6.00 Build 0)  -->
<!DOCTYPE svg PUBLIC "-//W3C//DTD SVG 1.1//EN" "http://www.w3.org/Graphics/SVG/1.1/DTD/svg11.dtd">
<svg version="1.1" id="图层_1" xmlns="http://www.w3.org/2000/svg" xmlns:xlink="http://www.w3.org/1999/xlink" x="0px" y="0px"
	 viewBox="0 0 20 20" enable-background="new 0 0 20 20" xml:space="preserve">
<g>
	<path d="M19.1,10.6c-0.3,0-0.6,0-0.9,0c-0.6,0-1.2,0-1.8,0c0-1.1,0-2.2,0-3.3c0-0.3,0.1-0.5,0.3-0.7c0.6-0.6,1.2-1.2,1.8-1.8
		c0.4-0.4,0.4-0.9,0-1.2c-0.3-0.3-0.7-0.3-1.1,0.1c-0.6,0.6-1.2,1.2-1.9,1.8c-0.2,0.1-0.4,0.3-0.6,0.3c-3.3,0-6.5,0-9.8,0
		c-0.3,0-0.5-0.1-0.7-0.3C3.8,4.9,3.2,4.3,2.6,3.7c-0.4-0.4-0.9-0.4-1.2,0C1.1,4,1.1,4.4,1.5,4.8c0.6,0.6,1.3,1.2,1.9,1.9
		c0.1,0.1,0.2,0.4,0.2,0.5c0,1,0,2,0,3c0,0.1,0,0.2,0,0.4c-0.9,0-1.8,0-2.7,0c-0.5,0-0.8,0.3-0.9,0.8c0,0.4,0.4,0.8,0.9,0.8
		c0.3,0,0.5,0,0.8,0c0.6,0,1.3,0,1.9,0c0,1.1,0.2,2.2,0.6,3.1c0.1,0.3,0.1,0.4-0.1,0.6c-0.7,0.8-1.5,1.6-2.2,2.4
		c-0.4,0.4-0.4,0.9,0,1.2c0.4,0.3,0.8,0.3,1.2-0.2c0.5-0.5,0.9-1,1.4-1.6C4.7,17.5,5,17.3,5.3,17c1.2,0.9,2.4,1.6,3.9,1.6
		c0-3.8,0-7.5,0-11.2c0.5,0,1.1,0,1.6,0c0,3.7,0,7.5,0,11.2c1,0,1.7-0.3,3.9-1.5c0.1,0.1,0.1,0.2,0.2,0.3c0.7,0.7,1.4,1.4,2.1,2.1
		c0.2,0.2,0.5,0.4,0.8,0.2c0.2-0.1,0.5-0.4,0.5-0.6c0-0.2-0.2-0.6-0.3-0.8c-0.7-0.8-1.5-1.5-2.2-2.2c-0.2-0.2-0.2-0.3-0.1-0.5
		c0.2-0.5,0.4-1.1,0.5-1.7c0.1-0.5,0.1-1.1,0.2-1.7c0.5,0,0.9,0,1.3,0c0.5,0,0.9,0,1.4,0c0.5,0,0.8-0.3,0.9-0.8
		C20,11,19.6,10.6,19.1,10.6z"/>
	<path d="M10.1,0.2C7.9,0.1,6,2,6,4.2c2.7,0,5.3,0,7.9,0C14.1,2.2,12.3,0.3,10.1,0.2z"/>
</g>
</svg>
