<?xml version="1.0" encoding="utf-8"?>
<!-- Generator: Adobe Illustrator 18.1.1, SVG Export Plug-In . SVG Version: 6.00 Build 0)  -->
<!DOCTYPE svg PUBLIC "-//W3C//DTD SVG 1.1//EN" "http://www.w3.org/Graphics/SVG/1.1/DTD/svg11.dtd">
<svg version="1.1" id="图层_1" xmlns="http://www.w3.org/2000/svg" xmlns:xlink="http://www.w3.org/1999/xlink" x="0px" y="0px"
	 viewBox="0 0 200 200" enable-background="new 0 0 200 200" xml:space="preserve">
<path fill="#0C0B0B" d="M129.6,165H20.4C9.5,165,0,155.9,0,144.9V55.6C0,44.7,9.5,36,20.4,36h109.2c10.9,0,19.4,8.7,19.4,19.6v8.6
	l25.9-20.8c4.1-3.3,8-4,10.4-4c6.7,0,13.6,5.3,13.6,15.4v87.3c0,3.8-0.9,7-2.7,9.7c-2.5,3.6-6.4,5.7-10.8,5.7l0,0
	c-2.5,0-6.5-0.7-10.5-4L149,132.6v12.3C149,155.9,140.5,165,129.6,165z M129,144.9v9.9V144.9L129,144.9L129,144.9z M20,56v89h109.6
	l0-23.2c0-10.1,6.8-15.4,13.5-15.4c2.5,0,6.1,0.7,10.2,4l25.6,20.8V65.6l-25.6,20.8c-4.1,3.3-7.8,4-10.3,4c-4.4,0-8.6-2.1-11.1-5.7
	c-1.8-2.6-3-5.9-3-9.7V56H20z"/>
</svg>
