<?xml version="1.0" encoding="utf-8"?>
<!-- Generator: Adobe Illustrator 18.1.1, SVG Export Plug-In . SVG Version: 6.00 Build 0)  -->
<!DOCTYPE svg PUBLIC "-//W3C//DTD SVG 1.1//EN" "http://www.w3.org/Graphics/SVG/1.1/DTD/svg11.dtd">
<svg version="1.1" id="图层_1" xmlns="http://www.w3.org/2000/svg" xmlns:xlink="http://www.w3.org/1999/xlink" x="0px" y="0px"
	 viewBox="0 0 200 200" enable-background="new 0 0 200 200" xml:space="preserve">
<g>
	<path fill-rule="evenodd" clip-rule="evenodd" fill="#0C0B0B" d="M175,61c-5.5,0-10,4.5-10,10v87.4c0,3.6-3.1,6.7-6.7,6.7H41.7
		c-3.6,0-6.7-3.1-6.7-6.7V41.7c0-3.7,3-6.7,6.7-6.7H129c5.5,0,10-4.5,10-10s-4.5-10-10-10H41.7C27,15,15,27,15,41.7v116.7
		C15,173,27,185,41.7,185h116.7c14.7,0,26.7-12,26.7-26.7V71C185,65.4,180.5,61,175,61z"/>
	<path fill-rule="evenodd" clip-rule="evenodd" fill="#0C0B0B" d="M102.1,82.4L84.9,99.6l-4.4,18.7l18.7-4.4l17.2-17.2l-0.1-0.1
		l62.8-62.8c3.9-3.9,3.9-10.2,0-14.1s-10.2-3.9-14.1,0L102.1,82.4L102.1,82.4z"/>
</g>
</svg>
