<?xml version="1.0" encoding="utf-8"?>
<!-- Generator: Adobe Illustrator 18.1.1, SVG Export Plug-In . SVG Version: 6.00 Build 0)  -->
<!DOCTYPE svg PUBLIC "-//W3C//DTD SVG 1.1//EN" "http://www.w3.org/Graphics/SVG/1.1/DTD/svg11.dtd">
<svg version="1.1" id="图层_1" xmlns="http://www.w3.org/2000/svg" xmlns:xlink="http://www.w3.org/1999/xlink" x="0px" y="0px"
	 viewBox="0 0 500 500" enable-background="new 0 0 500 500" xml:space="preserve">
<g>
	<g>
		<path fill="#050505" d="M405.5,30.9h-311c-35.1,0-63.6,28.6-63.6,63.7v246.6c0,35.1,28.5,63.7,63.6,63.7h107.4l-27.2,28.7
			c-18.5,19.6-11.6,35.6,15.3,35.6H310c26.9,0,33.8-16,15.3-35.6l-27.2-28.7h107.4c35.1,0,63.6-28.6,63.6-63.7V94.6
			C469.1,59.5,440.6,30.9,405.5,30.9z M406.5,329.1c0,8.3-6.7,15-14.9,15H108.3c-8.2,0-14.8-6.7-14.8-15V108.5c0-8.3,6.7-15,14.8-15
			h283.3c8.2,0,14.9,6.7,14.9,15V329.1z"/>
	</g>
</g>
</svg>
