<?xml version="1.0" encoding="utf-8"?>
<!-- Generator: Adobe Illustrator 18.0.0, SVG Export Plug-In . SVG Version: 6.00 Build 0)  -->
<!DOCTYPE svg PUBLIC "-//W3C//DTD SVG 1.1//EN" "http://www.w3.org/Graphics/SVG/1.1/DTD/svg11.dtd">
<svg version="1.1" id="图层_1" xmlns="http://www.w3.org/2000/svg" xmlns:xlink="http://www.w3.org/1999/xlink" x="0px" y="0px"
	 viewBox="0 0 16 16" enable-background="new 0 0 16 16" xml:space="preserve">
<g>
	<path fill="#0A0A0A" d="M1.7,0L0,1.7l3,3L1.1,6.5l5.4,0l0-5.4L4.6,3L1.7,0z M11.3,13l3,3l1.7-1.7l-3-3l1.8-1.8l-5.4,0v5.4L11.3,13z
		 M14.3,0l-3,3L9.5,1.1v5.4h5.4L13,4.6l3-3L14.3,0z M1.7,16l3-3l1.8,1.9V9.5H1.1L3,11.4l-3,3L1.7,16z"/>
</g>
</svg>
