<?xml version="1.0" encoding="utf-8"?>
<!-- Generator: Adobe Illustrator 18.1.1, SVG Export Plug-In . SVG Version: 6.00 Build 0)  -->
<!DOCTYPE svg PUBLIC "-//W3C//DTD SVG 1.1//EN" "http://www.w3.org/Graphics/SVG/1.1/DTD/svg11.dtd">
<svg version="1.1" id="图层_1" xmlns="http://www.w3.org/2000/svg" xmlns:xlink="http://www.w3.org/1999/xlink" x="0px" y="0px"
	 viewBox="0 0 200 200" enable-background="new 0 0 200 200" xml:space="preserve">
<g>
	<path fill="#0C0B0B" d="M130.6,113c5.5,0,10-4.5,10-10s-4.5-10-10-10h-16.5l21.8-32.6c3.1-4.6,1.8-10.8-2.8-13.9
		s-10.8-1.8-13.9,2.8L98.4,80.5L77.6,49.3c-3.1-4.6-9.3-5.8-13.9-2.8c-4.6,3.1-5.8,9.3-2.8,13.9L82.7,93H70.6c-5.5,0-10,4.5-10,10
		s4.5,10,10,10H91v10H70.6c-5.5,0-10,4.5-10,10s4.5,10,10,10H91v20.6c0,5.5,4.5,10,10,10s10-4.5,10-10V143h19.6c5.5,0,10-4.5,10-10
		s-4.5-10-10-10H111v-10H130.6z"/>
	<path fill="#0C0B0B" d="M100,0C44.9,0,0,44.9,0,100s44.9,100,100,100s100-44.9,100-100S155.1,0,100,0z M100,180
		c-44.1,0-80-35.9-80-80c0-44.1,35.9-80,80-80s80,35.9,80,80C180,144.1,144.1,180,100,180z"/>
</g>
</svg>
