<?xml version="1.0" encoding="utf-8"?>
<!-- Generator: Adobe Illustrator 18.0.0, SVG Export Plug-In . SVG Version: 6.00 Build 0)  -->
<!DOCTYPE svg PUBLIC "-//W3C//DTD SVG 1.1//EN" "http://www.w3.org/Graphics/SVG/1.1/DTD/svg11.dtd">
<svg version="1.1" id="图层_1" xmlns="http://www.w3.org/2000/svg" xmlns:xlink="http://www.w3.org/1999/xlink" x="0px" y="0px"
	 viewBox="0 0 14 14" enable-background="new 0 0 14 14" xml:space="preserve">
<path fill="#181919" d="M5.3,5.3c0.5,0,0.9-0.4,0.9-0.9c0-0.5-0.4-0.9-0.9-0.9c-0.5,0-0.9,0.4-0.9,0.9C4.4,4.9,4.8,5.3,5.3,5.3
	L5.3,5.3z M3.5,7L3.5,7c0,1.9,1.6,3.5,3.5,3.5c1.9,0,3.5-1.6,3.5-3.5v0H3.5L3.5,7z M7,0C3.1,0,0,3.1,0,7c0,3.9,3.1,7,7,7
	c3.9,0,7-3.1,7-7C14,3.1,10.9,0,7,0L7,0z M7,12.2c-2.9,0-5.2-2.4-5.2-5.2c0-2.9,2.4-5.2,5.2-5.2c2.9,0,5.3,2.4,5.3,5.2
	C12.3,9.9,9.9,12.2,7,12.2L7,12.2z M8.8,5.3c0.5,0,0.9-0.4,0.9-0.9c0-0.5-0.4-0.9-0.9-0.9c-0.5,0-0.9,0.4-0.9,0.9
	C7.9,4.9,8.3,5.3,8.8,5.3L8.8,5.3z M8.8,5.3"/>
</svg>
