<?xml version="1.0" encoding="utf-8"?>
<!-- Generator: Adobe Illustrator 18.0.0, SVG Export Plug-In . SVG Version: 6.00 Build 0)  -->
<!DOCTYPE svg PUBLIC "-//W3C//DTD SVG 1.1//EN" "http://www.w3.org/Graphics/SVG/1.1/DTD/svg11.dtd">
<svg version="1.1" id="图层_1" xmlns="http://www.w3.org/2000/svg" xmlns:xlink="http://www.w3.org/1999/xlink" x="0px" y="0px"
	 viewBox="0 0 16 16" enable-background="new 0 0 16 16" xml:space="preserve">
<g>
	<g>
		<path fill="#0A0A0A" d="M4.8,6.5l1.7-1.7l-3-3L5.4,0H0l0,5.4l1.9-1.9L4.8,6.5z M14.1,12.5l-3-3l-1.7,1.7l3,3L10.6,16H16l0-5.4
			L14.1,12.5z M11.2,6.5l3-3L16,5.4V0l-5.4,0l1.9,1.9l-3,3L11.2,6.5z M4.8,9.5l-3,3L0,10.6V16l5.4,0l-1.9-1.9l3-3L4.8,9.5z"/>
	</g>
</g>
</svg>
