<?xml version="1.0" encoding="utf-8"?>
<!-- Generator: Adobe Illustrator 18.1.1, SVG Export Plug-In . SVG Version: 6.00 Build 0)  -->
<!DOCTYPE svg PUBLIC "-//W3C//DTD SVG 1.1//EN" "http://www.w3.org/Graphics/SVG/1.1/DTD/svg11.dtd">
<svg version="1.1" id="图层_1" xmlns="http://www.w3.org/2000/svg" xmlns:xlink="http://www.w3.org/1999/xlink" x="0px" y="0px"
	 viewBox="0 0 16 16" enable-background="new 0 0 16 16" xml:space="preserve">
<path fill="#111111" d="M14.3,14c0,0.6-0.4,1-1,1H0.8l1.8-8.3c0-0.6,0.4-1,1-1H15c0.6,0,1,0.5,1,1L14.3,14L14.3,14z M2.8,4.9H14v-1
	c0-0.6-0.4-1-1-1H7V2c0-0.6-0.4-1-1-1H1C0.4,1,0,1.5,0,2v12l1.8-8.1C1.8,5.4,2.2,4.9,2.8,4.9L2.8,4.9z M2.8,4.9"/>
</svg>
