<?xml version="1.0" encoding="utf-8"?>
<!-- Generator: Adobe Illustrator 16.0.0, SVG Export Plug-In . SVG Version: 6.00 Build 0)  -->
<!DOCTYPE svg PUBLIC "-//W3C//DTD SVG 1.1//EN" "http://www.w3.org/Graphics/SVG/1.1/DTD/svg11.dtd">
<svg version="1.1" id="图层_1" xmlns="http://www.w3.org/2000/svg" xmlns:xlink="http://www.w3.org/1999/xlink" x="0px" y="0px"
	 width="32px" height="32px" viewBox="0 0 32 32" enable-background="new 0 0 32 32" xml:space="preserve">
<g>
	<path fill="#221F20" d="M9.332,23.167c-0.075,0-0.151-0.017-0.224-0.053c-0.247-0.124-0.347-0.424-0.223-0.671
		c1.29-2.574,3.949-4.11,7.115-4.11c0.276,0,0.5,0.224,0.5,0.5s-0.224,0.5-0.5,0.5c-2.821,0-5.088,1.297-6.221,3.558
		C9.691,23.066,9.515,23.167,9.332,23.167z"/>
	<path fill="#221F20" d="M22.666,23.167c-0.183,0-0.359-0.102-0.447-0.276c-1.131-2.261-3.397-3.558-6.219-3.558
		c-0.276,0-0.5-0.224-0.5-0.5s0.224-0.5,0.5-0.5c3.167,0,5.826,1.536,7.113,4.11c0.123,0.247,0.023,0.547-0.224,0.671
		C22.818,23.15,22.741,23.167,22.666,23.167z"/>
	<circle fill="#221F20" cx="10" cy="12" r="2"/>
	<circle fill="#221F20" cx="22" cy="12" r="2"/>
	<path fill="#221F20" d="M16,30.5C8.005,30.5,1.5,23.995,1.5,16S8.005,1.5,16,1.5S30.5,8.005,30.5,16S23.995,30.5,16,30.5z M16,2.5
		C8.556,2.5,2.5,8.556,2.5,16c0,7.444,6.056,13.5,13.5,13.5c7.444,0,13.5-6.056,13.5-13.5C29.5,8.556,23.444,2.5,16,2.5z"/>
</g>
</svg>
