<?xml version="1.0" encoding="utf-8"?>
<!-- Generator: Adobe Illustrator 18.1.1, SVG Export Plug-In . SVG Version: 6.00 Build 0)  -->
<!DOCTYPE svg PUBLIC "-//W3C//DTD SVG 1.1//EN" "http://www.w3.org/Graphics/SVG/1.1/DTD/svg11.dtd">
<svg version="1.1" id="图层_1" xmlns="http://www.w3.org/2000/svg" xmlns:xlink="http://www.w3.org/1999/xlink" x="0px" y="0px"
	 viewBox="0 0 200 200" enable-background="new 0 0 200 200" xml:space="preserve">
<g>
	<g>
		<path fill="#0C0B0B" d="M128.1,195.3c-4.5,0-8.8-2.5-11.1-6.5c-3.3-5.6-9.8-9.1-17-9.1c-7.2,0-13.7,3.5-17,9.1
			c-2.3,4-6.6,6.4-11.1,6.4h-1.7l-2.4-0.7c-12-4.1-23.1-10.4-32.8-18.7c-4.6-4-5.7-10.7-2.6-16.1c3.3-5.7,3.1-13.2-0.5-19.5
			c-3.6-6.3-10-10.2-16.5-10.2c0,0,0,0,0,0c-6.7,0-12-4.3-13.2-10.1c-1.3-6.6-2-13.3-2-20c0-6.1,0.5-12.1,1.6-18.1
			c1.1-6,6.4-10.4,12.6-10.4l1.1,0c6.5,0,12.9-3.9,16.5-10.1c3.8-6.5,3.9-14.5,0.2-20.2c-3.5-5.3-2.5-12.5,2.2-16.6
			c9.6-8.4,20.5-14.7,32.5-18.9L68.4,5l2.6-0.1c4.8,0,9.3,2.8,11.5,7.2c3,6.1,9.9,10.1,17.6,10.1c7.6,0,14.5-4,17.6-10.1
			c2.1-4.4,6.7-7.2,11.5-7.2h1.7l2.5,0.7c12.1,4.3,23.1,10.7,32.8,19.2c4.8,4.2,5.7,11.2,2.2,16.6c-3.7,5.7-3.7,13.6,0.1,20.2
			c3.6,6.3,10,10.2,16.6,10.2c0,0,0,0,0,0c7.2,0,12.5,4.4,13.6,10.4c1,5.8,1.6,11.7,1.6,17.7c0,6.9-0.7,13.7-2.1,20.4
			c-1.3,6-6.4,10.1-12.6,10.1c0,0,0,0,0,0c-7.3,0-13.6,3.9-17.2,10.1c-3.7,6.3-3.9,13.7-0.6,19.4c3.1,5.4,1.9,12.1-2.7,16.1
			c-9.7,8.3-20.7,14.5-32.6,18.5l-1.6,0.5L128.1,195.3z M52.2,164.1c5.3,3.9,10.9,7.2,17,9.7c7.3-8.8,18.7-14.1,30.8-14.1
			c12.1,0,23.5,5.3,30.8,14.1c5.9-2.5,11.5-5.6,16.7-9.5c-4-10.8-2.8-23.3,3.3-33.8c6.2-10.8,16.8-18,28.5-19.7
			c0.5-3.6,0.7-7.2,0.7-10.9c0-2.9-0.2-5.8-0.5-8.6c-12.1-1.9-22.5-9.1-28.6-19.7c-6.4-11.1-7.2-24.3-2.5-35.4
			c-5.1-3.9-10.5-7.1-16.4-9.6c-7.3,9.6-19.2,15.6-32,15.6s-24.8-6-32-15.6C62.3,29,56.9,32.2,51.9,36c4.6,11.1,3.7,24.4-2.7,35.4
			c-6.3,10.8-17,18.1-28.7,19.7C20.2,94,20,97,20,99.9c0,3.6,0.2,7.1,0.7,10.6c11.8,1.9,22.2,9.1,28.4,19.7
			C55.2,140.8,56.2,153.3,52.2,164.1z M100,140c-11.9,0-23.1-5.2-30.8-14.4c-7.7-9.1-10.8-21.1-8.8-33c2.8-16.2,16.1-29.5,32.3-32.3
			c25.3-4.3,47.4,15,47.4,39.5C140.2,122,122.1,140,100,140z M100,79.7c-1.2,0-2.5,0.1-3.7,0.3c-7.9,1.4-14.7,8.2-16.1,16.1
			c-1.1,6.1,0.5,12.1,4.4,16.7c3.8,4.6,9.5,7.2,15.5,7.2c11.1,0,20.2-9,20.2-20.2S111.1,79.7,100,79.7z"/>
	</g>
</g>
</svg>
