<?xml version="1.0" encoding="utf-8"?>
<!-- Generator: Adobe Illustrator 18.1.1, SVG Export Plug-In . SVG Version: 6.00 Build 0)  -->
<!DOCTYPE svg PUBLIC "-//W3C//DTD SVG 1.1//EN" "http://www.w3.org/Graphics/SVG/1.1/DTD/svg11.dtd">
<svg version="1.1" id="图层_1" xmlns="http://www.w3.org/2000/svg" xmlns:xlink="http://www.w3.org/1999/xlink" x="0px" y="0px"
	 viewBox="0 0 14 14" enable-background="new 0 0 14 14" xml:space="preserve">
<path fill="#212020" d="M8.9,3.3c0.4-0.9,1.1-1.9,1.7-1.9c0.1,0,0.1,0,0.2,0c0.3,0.1,0.6,0.2,0.5,0.6C11.3,2.5,10.5,3.2,8.9,3.3
	L8.9,3.3z M7.8,6.7h5V14h-5V6.7L7.8,6.7z M2.9,2c0-0.4,0.2-0.5,0.5-0.6c0.1,0,0.1,0,0.2,0c0.6,0,1.3,1,1.7,1.9
	C3.7,3.2,2.9,2.5,2.9,2L2.9,2z M1.2,6.7h5V14h-5V6.7L1.2,6.7z M14,6.2V4h-2.7c0.8-0.5,1.3-1.2,1.4-1.8c0.1-1-0.5-1.8-1.5-2.1
	C11,0,10.8,0,10.6,0C8.8,0,7.8,2.4,7.4,3.4H6.8C6.4,2.4,5.4,0,3.6,0C3.4,0,3.2,0.1,3,0.1C2,0.4,1.3,1.3,1.5,2.2C1.6,2.9,2,3.5,2.8,4
	H0v2.2H14L14,6.2z M14,6.2"/>
</svg>
