<?xml version="1.0" encoding="utf-8"?>
<!-- Generator: Adobe Illustrator 18.1.1, SVG Export Plug-In . SVG Version: 6.00 Build 0)  -->
<!DOCTYPE svg PUBLIC "-//W3C//DTD SVG 1.1//EN" "http://www.w3.org/Graphics/SVG/1.1/DTD/svg11.dtd">
<svg version="1.1" id="图层_1" xmlns="http://www.w3.org/2000/svg" xmlns:xlink="http://www.w3.org/1999/xlink" x="0px" y="0px"
	 viewBox="0 0 100 100" enable-background="new 0 0 100 100" xml:space="preserve">
<path fill="#0A0A0A" d="M0,6.2v87.5h100V6.2H0L0,6.2z M37.5,62.5V43.7h25v18.7H37.5L37.5,62.5z M62.5,68.7v18.7h-25V68.7H62.5
	L62.5,68.7z M62.5,18.7v18.7h-25V18.7H62.5L62.5,18.7z M31.3,18.7v18.7h-25V18.7H31.3L31.3,18.7z M6.2,43.7h25v18.7h-25V43.7
	L6.2,43.7z M68.8,43.7h25v18.7h-25V43.7L68.8,43.7z M68.8,37.5V18.7h25v18.7H68.8L68.8,37.5z M6.2,68.7h25v18.7h-25V68.7L6.2,68.7z
	 M68.8,87.5V68.7h25v18.7H68.8L68.8,87.5z M68.8,87.5"/>
</svg>
