<?xml version="1.0" encoding="utf-8"?>
<!-- Generator: Adobe Illustrator 18.1.1, SVG Export Plug-In . SVG Version: 6.00 Build 0)  -->
<!DOCTYPE svg PUBLIC "-//W3C//DTD SVG 1.1//EN" "http://www.w3.org/Graphics/SVG/1.1/DTD/svg11.dtd">
<svg version="1.1" id="图层_1" xmlns="http://www.w3.org/2000/svg" xmlns:xlink="http://www.w3.org/1999/xlink" x="0px" y="0px"
	 viewBox="0 0 540 540" enable-background="new 0 0 540 540" xml:space="preserve">
<path fill-rule="evenodd" clip-rule="evenodd" d="M318.6,540c-164.9,0-181.1-83-224.5-140.9C63.6,358.4-10.7,263.1,35,211.3
	c13.3-14.7,39.4-25.5,70.9-11.7c22.5,9.9,26.2,17.9,47.3,47V93.9c0-31.7,22-58.7,47.3-58.7c24.9,0,33.1,8.8,35.4,11.7
	c3.7-34.5,33.8-47,59.1-47c25.3,0,56.6,15.6,59.1,47c8.9-12.4,32.1-11.7,35.4-11.7c22.9,0,47.3,16.6,47.3,47v23.5
	c10.8-13.7,27.5-17.3,44.3-13.7c17.6,3.8,38.4,23,38.4,50.2v232.3C519.5,535.3,318.6,540,318.6,540z M460.4,129.1
	c-12.2,0-23.6,12.1-23.6,23.5c0,9,0,77.8,0,105.7c0,0,0,1.5,0,5.9c0,9.7-7.9,17.6-17.7,17.6c-9.8,0-17.7-7.9-17.7-17.6
	c0-4.4,0-5.9,0-5.9c0-37.4,0-153.9,0-164.3c0-12.5-11-23.5-23.6-23.5c-12.7,0-23.6,12.1-23.6,23.5c0,9.5,0,116.9,0,152.6
	c0,0,0,1.5,0,5.9c0,9.7-7.9,17.6-17.7,17.6c-9.8,0-17.7-7.9-17.7-17.6c0-4.4,0-5.9,0-5.9s0-176.2,0-187.8
	c0-15.7-11.4-23.5-23.6-23.5c-12.2,0-23.6,7.3-23.6,23.5c0,15.6,0,198.3,0,211.3c0,0,0,1.5,0,5.9c0,9.7-7.9,17.6-17.7,17.6
	c-9.8,0-17.7-7.9-17.7-17.6c0-4.4,0-5.9,0-5.9s0-161,0-176.1s-10.7-23.5-23.6-23.5c-12.9,0-23.6,7-23.6,23.5c0,16.5,0,187.8,0,187.8
	c0,6.8-6.3,20.2-11.8,23.5c-5.5,3.3-14,6.2-23.6,0c-9.6-6.2-40.2-63.5-59.1-70.4c-13.6-5-33.6-4.4-35.4,23.5
	c-2.1,32.1,36.7,76.5,69.9,121.3c33.2,44.8,54.4,125.3,178.2,125.3c71.1,0,176.1-43.2,177.1-128.8c0,0,0.2-212.1,0.2-223.4
	C484,141.2,472.6,129.1,460.4,129.1z"/>
</svg>
