<?xml version="1.0" encoding="utf-8"?>
<!-- Generator: Adobe Illustrator 18.0.0, SVG Export Plug-In . SVG Version: 6.00 Build 0)  -->
<!DOCTYPE svg PUBLIC "-//W3C//DTD SVG 1.1//EN" "http://www.w3.org/Graphics/SVG/1.1/DTD/svg11.dtd">
<svg version="1.1" id="Capa_1" xmlns="http://www.w3.org/2000/svg" xmlns:xlink="http://www.w3.org/1999/xlink" x="0px" y="0px"
	 viewBox="0 0 120 120" enable-background="new 0 0 120 120" xml:space="preserve">
<path fill="#9D9E9E" d="M0,20v80c0,5.5,0,10,0,10h120c0,0,0-4.5,0-10V20c0-5.5,0-10,0-10H0C0,10,0,14.5,0,20z M5,100V20
	c0-2.8,0-5,0-5h110c0,0,0,2.2,0,5v80c0,2.8,0.1,5,0.1,5H5.1C5.1,105,5,102.8,5,100L5,100z"/>
<path fill="#9D9E9E" d="M52.5,41.2c0-6.2-5-11.3-11.3-11.3C35,30,30,35,30,41.2s5,11.3,11.3,11.3C47.5,52.5,52.5,47.5,52.5,41.2z"/>
<path fill="#9D9E9E" d="M19,78.4c-1,1-1,2.6,0,3.5c1,1,2.6,1,3.5,0L38.4,66l10.2,10.2l-6.2,6.2c-1,1-1,2.6,0,3.5c1,1,2.6,1,3.5,0
	l28.3-28.3l26.5,26.5c1,1,2.6,1,3.5,0c1-1,1-2.6,0-3.5c0,0-28.2-28.3-28.3-28.3c-0.5-0.5-1.1-0.7-1.8-0.7c-0.6,0-1.3,0.2-1.8,0.7
	L52,72.6c0,0-11.9-12-12-12c-0.5-0.5-1.2-0.7-1.8-0.7c-0.7,0-1.3,0.2-1.8,0.7C36.5,60.8,19,78.4,19,78.4z"/>
</svg>
