<?xml version="1.0" encoding="utf-8"?>
<!-- Generator: Adobe Illustrator 18.1.1, SVG Export Plug-In . SVG Version: 6.00 Build 0)  -->
<!DOCTYPE svg PUBLIC "-//W3C//DTD SVG 1.1//EN" "http://www.w3.org/Graphics/SVG/1.1/DTD/svg11.dtd">
<svg version="1.1" id="图层_1" xmlns="http://www.w3.org/2000/svg" xmlns:xlink="http://www.w3.org/1999/xlink" x="0px" y="0px"
	 viewBox="0 0 22 22" enable-background="new 0 0 22 22" xml:space="preserve">
<path fill-rule="evenodd" clip-rule="evenodd" fill="#0A0A0A" d="M18.1,21H3.9C3.4,21,3,20.6,3,20.1v-8.1C3,11.4,3.4,11,3.9,11h1.5
	V6.6C5.5,3.5,7.9,1,11,1s5.5,2.5,5.5,5.6V11h1.5c0.5,0,0.9,0.4,0.9,0.9v8.1C19,20.6,18.6,21,18.1,21z M10.1,16.4v1.8
	c0,0.5,0.4,0.9,0.9,0.9c0.5,0,0.9-0.4,0.9-0.9v-1.8c0.6-0.3,0.9-0.9,0.9-1.6c0-1-0.8-1.9-1.8-1.9s-1.8,0.8-1.8,1.9
	C9.2,15.4,9.5,16,10.1,16.4z M14.7,6.6c0-2.1-1.7-3.8-3.7-3.8c-2,0-3.7,1.7-3.7,3.8V11h7.4V6.6z"/>
</svg>
