<?xml version="1.0" encoding="utf-8"?>
<!-- Generator: Adobe Illustrator 17.0.0, SVG Export Plug-In . SVG Version: 6.00 Build 0)  -->
<!DOCTYPE svg PUBLIC "-//W3C//DTD SVG 1.1//EN" "http://www.w3.org/Graphics/SVG/1.1/DTD/svg11.dtd">
<svg version="1.1" id="图层_1" xmlns="http://www.w3.org/2000/svg" xmlns:xlink="http://www.w3.org/1999/xlink" x="0px" y="0px"
	 width="20px" height="20px" viewBox="0 0 20 20" enable-background="new 0 0 20 20" xml:space="preserve">
<g>
	<path fill="#0C0B0B" d="M10,13.667c-2.389,0-4.333-1.944-4.333-4.334v-5C5.667,1.943,7.611,0,10,0c2.39,0,4.333,1.943,4.333,4.333
		v5C14.333,11.723,12.39,13.667,10,13.667z M10,2C8.713,2,7.667,3.047,7.667,4.333v5c0,1.287,1.046,2.334,2.333,2.334
		s2.333-1.047,2.333-2.334v-5C12.333,3.047,11.286,2,10,2z"/>
</g>
<g>
	<path fill="#0C0B0B" d="M10,17.144c-4.179,0-7.618-3.399-7.666-7.577C2.328,9.014,2.77,8.562,3.322,8.555
		c0.533-0.006,1.005,0.437,1.012,0.988C4.37,12.631,6.911,15.144,10,15.144c3.089,0,5.631-2.513,5.667-5.601
		c0.006-0.552,0.438-0.961,1.012-0.988c0.552,0.007,0.995,0.459,0.988,1.012C17.618,13.744,14.179,17.144,10,17.144z"/>
</g>
<g>
	<rect x="9" y="16" fill="#0C0B0B" width="2" height="3"/>
</g>
<g>
	<path fill="#0C0B0B" d="M13.768,20h-8c-0.552,0-1-0.447-1-1s0.448-1,1-1h8c0.552,0,1,0.447,1,1S14.32,20,13.768,20z"/>
</g>
<g>
	<rect x="7.648" y="8.822" fill="#0C0B0B" width="4.735" height="1"/>
	<rect x="7.625" y="6.33" fill="#0C0B0B" width="4.735" height="1"/>
</g>
</svg>
