<?xml version="1.0" encoding="utf-8"?>
<!-- Generator: Adobe Illustrator 18.1.1, SVG Export Plug-In . SVG Version: 6.00 Build 0)  -->
<!DOCTYPE svg PUBLIC "-//W3C//DTD SVG 1.1//EN" "http://www.w3.org/Graphics/SVG/1.1/DTD/svg11.dtd">
<svg version="1.1" id="图层_1" xmlns="http://www.w3.org/2000/svg" xmlns:xlink="http://www.w3.org/1999/xlink" x="0px" y="0px"
	 viewBox="0 0 200 200" enable-background="new 0 0 200 200" xml:space="preserve">
<g>
	<path fill="#0C0B0B" d="M100,133.8c23.4,0,42-19,42-42.5v-49c0-23.4-18.6-42.5-42-42.5c-23.4,0-42,19-42,42.5v49
		C58,114.7,76.6,133.8,100,133.8z M77,42.3c0-12.6,10.4-22.9,23-22.9s23,10.3,23,22.9v49c0,12.6-10.4,22.9-23,22.9s-23-10.3-23-22.9
		V42.3z"/>
	<path fill="#0C0B0B" d="M175.1,93.6c0.1-5.4-4.3-9.8-9.7-9.9c-5.6,0.3-9.9,4.3-9.9,9.7c-0.3,30.3-25.3,54.9-55.5,54.9
		c-30.3,0-55.2-24.6-55.5-54.9c-0.1-5.4-4.7-9.7-9.9-9.7c-5.4,0.1-9.7,4.5-9.7,9.9c0.4,36.8,27.8,67.5,63.1,73.3V180H58.8
		c-5.4,0-9.8,4.6-9.8,10s4.4,10,9.8,10h78.4c5.4,0,9.8-4.6,9.8-10s-4.4-10-9.8-10H108v-12.6C145.2,163.4,174.7,131.8,175.1,93.6z"/>
</g>
</svg>
