<?xml version="1.0" encoding="utf-8"?>
<!-- Generator: Adobe Illustrator 18.1.1, SVG Export Plug-In . SVG Version: 6.00 Build 0)  -->
<!DOCTYPE svg PUBLIC "-//W3C//DTD SVG 1.1//EN" "http://www.w3.org/Graphics/SVG/1.1/DTD/svg11.dtd">
<svg version="1.1" id="图层_1" xmlns="http://www.w3.org/2000/svg" xmlns:xlink="http://www.w3.org/1999/xlink" x="0px" y="0px"
	 viewBox="0 0 500 500" enable-background="new 0 0 500 500" xml:space="preserve">
<path fill="#050505" d="M381.5,0H126c-15.7,0-32.3,12.3-32.3,27.4v445.2c0,15.1,16.6,27.4,32.3,27.4h23.6h208.3h23.6
	c15.7,0,24.8-12.3,24.8-27.4V27.4C406.3,12.3,397.2,0,381.5,0z M250,469.2c-17,0-30.9-14-30.9-31.4c0-17.3,13.8-31.4,30.9-31.4
	s30.9,14,30.9,31.4C280.9,455.2,267,469.2,250,469.2z M343.4,374.6H156.6V62.7h186.8V374.6z"/>
</svg>
