<?xml version="1.0" encoding="utf-8"?>
<!-- Generator: Adobe Illustrator 16.0.0, SVG Export Plug-In . SVG Version: 6.00 Build 0)  -->
<!DOCTYPE svg PUBLIC "-//W3C//DTD SVG 1.1//EN" "http://www.w3.org/Graphics/SVG/1.1/DTD/svg11.dtd">
<svg version="1.1" id="图层_1" xmlns="http://www.w3.org/2000/svg" xmlns:xlink="http://www.w3.org/1999/xlink" x="0px" y="0px"
	 width="32px" height="32px" viewBox="0 0 32 32" enable-background="new 0 0 32 32" xml:space="preserve">
<g>
	<circle fill="#221F20" cx="10" cy="12" r="2"/>
	<circle fill="#221F20" cx="22" cy="12" r="2"/>
	<path fill="#221F20" d="M16,30.5C8.005,30.5,1.5,23.995,1.5,16S8.005,1.5,16,1.5S30.5,8.005,30.5,16S23.995,30.5,16,30.5z M16,2.5
		C8.556,2.5,2.5,8.556,2.5,16c0,7.444,6.056,13.5,13.5,13.5c7.444,0,13.5-6.056,13.5-13.5C29.5,8.556,23.444,2.5,16,2.5z"/>
	<path fill="#221F20" d="M22,21c0,0.553-0.447,1-1,1H11c-0.553,0-1-0.447-1-1l0,0c0-0.553,0.447-1,1-1h10C21.553,20,22,20.447,22,21
		L22,21z"/>
</g>
</svg>
