<?xml version="1.0" encoding="utf-8"?>
<!-- Generator: Adobe Illustrator 18.1.1, SVG Export Plug-In . SVG Version: 6.00 Build 0)  -->
<!DOCTYPE svg PUBLIC "-//W3C//DTD SVG 1.1//EN" "http://www.w3.org/Graphics/SVG/1.1/DTD/svg11.dtd">
<svg version="1.1" id="图层_1" xmlns="http://www.w3.org/2000/svg" xmlns:xlink="http://www.w3.org/1999/xlink" x="0px" y="0px"
	 viewBox="0 0 16 16" enable-background="new 0 0 16 16" xml:space="preserve">
<g>
	<g>
		<g>
			<path fill-rule="evenodd" clip-rule="evenodd" fill="#111111" d="M5,7.1C4.5,7.1,4.2,7.5,4.2,8c0,0.5,0.4,0.9,0.9,0.9
				c0.5,0,0.9-0.4,0.9-0.9C5.9,7.5,5.5,7.1,5,7.1z M8,0C3.6,0,0,3.6,0,8c0,1.6,0.5,3.2,1.4,4.5l-0.8,2.7c-0.1,0.2,0,0.4,0.1,0.6
				C0.9,16,1.1,16,1.4,16l2.9-0.9C5.4,15.7,6.7,16,8,16c4.4,0,8-3.6,8-8C16,3.6,12.4,0,8,0z M8,14.8c-1.2,0-2.3-0.3-3.3-0.9
				c-0.1-0.1-0.3-0.1-0.5-0.1l-2.1,0.6l0.6-1.9c0.1-0.2,0-0.4-0.1-0.5C1.7,10.9,1.2,9.5,1.2,8c0-1.6,0.5-3,1.4-4.2l4.6,4.6
				c0.1,0.1,0.2,0.2,0.3,0.3l4.6,4.6C11,14.3,9.6,14.8,8,14.8z M12.9,12.7L8.7,8.5C8.8,8.4,8.9,8.2,8.9,8c0-0.5-0.4-0.9-0.9-0.9
				c-0.2,0-0.4,0.1-0.5,0.2L3.3,3.1C4.5,1.9,6.2,1.2,8,1.2c3.8,0,6.8,3.1,6.8,6.8C14.8,9.8,14.1,11.5,12.9,12.7z M11,7.1
				c-0.5,0-0.9,0.4-0.9,0.9c0,0.5,0.4,0.9,0.9,0.9c0.5,0,0.9-0.4,0.9-0.9C11.8,7.5,11.5,7.1,11,7.1z"/>
		</g>
	</g>
</g>
</svg>
