<?xml version="1.0" encoding="utf-8"?>
<!-- Generator: Adobe Illustrator 18.1.1, SVG Export Plug-In . SVG Version: 6.00 Build 0)  -->
<!DOCTYPE svg PUBLIC "-//W3C//DTD SVG 1.1//EN" "http://www.w3.org/Graphics/SVG/1.1/DTD/svg11.dtd">
<svg version="1.1" id="图层_1" xmlns="http://www.w3.org/2000/svg" xmlns:xlink="http://www.w3.org/1999/xlink" x="0px" y="0px"
	 viewBox="0 0 200 200" enable-background="new 0 0 200 200" xml:space="preserve">
<g>
	<path fill="#0C0B0B" d="M68.4,29.5c4.2,3.4,10.4,2.7,13.8-1.5c4.4-5.5,11-8.6,17.9-8.6c12.6,0,22.9,10.3,22.9,22.9v38.3
		c0,5.4,4.1,9.8,9.5,9.8s9.5-4.4,9.5-9.8V42.2c0-23.4-18.8-42.5-42.2-42.5c-12.9,0-24.9,5.8-33,15.9C63.4,20,64.2,26.1,68.4,29.5z"
		/>
	<path fill="#0C0B0B" d="M150.2,135.4c1.6,1,3.4,1.5,5.2,1.5c3.3,0,6.5-1.6,8.3-4.6c7.3-11.6,11.2-24.8,11.4-38.6
		c0.1-5.4-4.3-9.7-9.7-9.7c0,0-0.1,0-0.1,0c-5.4,0-9.7,4.1-9.8,9.5c-0.1,10.1-3,19.9-8.4,28.5C144.3,126.6,145.7,132.5,150.2,135.4z
		"/>
	<path fill="#0C0B0B" d="M136.9,180H108v-12.7c3.5-0.4,7-1,10.5-1.9c5.2-1.3,8.4-6.7,7.1-11.9c-1.3-5.2-6.6-8.4-11.9-7.1
		c-4.4,1.1-9,1.7-13.6,1.7c-30.3,0-55.2-24.6-55.5-54.9c-0.1-5.4-4.7-9.7-9.9-9.7c-5.4,0.1-9.7,4.5-9.7,9.9
		c0.4,36.8,27.8,67.5,63.1,73.3V180H58.5c-5.4,0-9.8,4.6-9.8,10s4.4,10,9.8,10h78.4c5.4,0,9.8-4.6,9.8-10S142.3,180,136.9,180z"/>
	<path fill="#0C0B0B" d="M185.8,178L19.6,11.8c-3.8-3.8-10-3.8-13.9,0s-3.8,10,0,13.9L172,191.9c1.9,1.9,4.4,2.9,6.9,2.9
		c2.5,0,5-1,6.9-2.9C189.7,188.1,189.7,181.9,185.8,178z"/>
</g>
</svg>
