<?xml version="1.0" encoding="utf-8"?>
<!-- Generator: Adobe Illustrator 18.1.1, SVG Export Plug-In . SVG Version: 6.00 Build 0)  -->
<!DOCTYPE svg PUBLIC "-//W3C//DTD SVG 1.1//EN" "http://www.w3.org/Graphics/SVG/1.1/DTD/svg11.dtd">
<svg version="1.1" id="图层_1" xmlns="http://www.w3.org/2000/svg" xmlns:xlink="http://www.w3.org/1999/xlink" x="0px" y="0px"
	 viewBox="0 0 200 200" enable-background="new 0 0 200 200" xml:space="preserve">
<g>
	<path fill="#0C0B0B" d="M195.9,175.8L26.3,6.2c-3.9-3.9-10.2-3.9-14.1,0c-3.9,3.9-3.9,10.2,0,14.1l169.6,169.6c2,2,4.5,2.9,7.1,2.9
		s5.1-1,7.1-2.9C199.8,186,199.8,179.7,195.9,175.8z"/>
	<path fill="#0C0B0B" d="M69.5,26.2C77.4,22.1,86,20,95,20c30.3,0,55,24.7,55,55c0,7.4-1.5,14.6-4.3,21.4
		c-2.1,5.1,0.2,10.9,5.3,13.1c1.3,0.5,2.6,0.8,3.9,0.8c3.9,0,7.6-2.3,9.2-6.1c3.9-9.2,5.9-19,5.9-29.2C169.9,33.6,136.3,0,95,0
		C82.9,0,70.9,3,60.2,8.6c-4.9,2.6-6.8,8.6-4.2,13.5C58.6,26.9,64.6,28.8,69.5,26.2z"/>
	<path fill="#0C0B0B" d="M109.1,136.2c-2.7-2.7-6-4.4-9.6-5.1c-1.4-0.7-2.9-1.1-4.6-1.1c-24.3,0-45.5-15.6-52.6-38.8
		c-1.6-5.3-7.2-8.3-12.5-6.6c-5.3,1.6-8.3,7.2-6.6,12.5c7.3,23.7,25.2,41.6,47.7,49.1l-29.3,29.3c-6.9,6.9-5.3,13.2-4.2,15.7
		c1,2.5,4.5,8,14.2,8h86.6c9.7,0,13.2-5.6,14.2-8c1-2.5,2.7-8.9-4.2-15.8L109.1,136.2z M65.9,179.4L95,150.3l29.1,29.1L65.9,179.4z"
		/>
</g>
</svg>
