<?xml version="1.0" encoding="utf-8"?>
<!-- Generator: Adobe Illustrator 17.0.0, SVG Export Plug-In . SVG Version: 6.00 Build 0)  -->
<!DOCTYPE svg PUBLIC "-//W3C//DTD SVG 1.1//EN" "http://www.w3.org/Graphics/SVG/1.1/DTD/svg11.dtd">
<svg version="1.1" id="图层_1" xmlns="http://www.w3.org/2000/svg" xmlns:xlink="http://www.w3.org/1999/xlink" x="0px" y="0px"
	 width="20px" height="20px" viewBox="0 0 20 20" enable-background="new 0 0 20 20" xml:space="preserve">
<g>
	<g>
		<g>
			<path fill="#231F20" d="M10,1c4.963,0,9,4.037,9,9s-4.037,9-9,9s-9-4.037-9-9S5.037,1,10,1 M10,0C4.477,0,0,4.477,0,10
				s4.477,10,10,10s10-4.477,10-10S15.523,0,10,0L10,0z"/>
		</g>
	</g>
	<g>
		<path fill="#231F20" d="M14.375,10.5h-9c-0.276,0-0.5-0.224-0.5-0.5s0.224-0.5,0.5-0.5h9c0.276,0,0.5,0.224,0.5,0.5
			S14.651,10.5,14.375,10.5z"/>
	</g>
	<g>
		<path fill="#231F20" d="M9.875,15c-0.276,0-0.5-0.224-0.5-0.5v-9c0-0.276,0.224-0.5,0.5-0.5s0.5,0.224,0.5,0.5v9
			C10.375,14.776,10.151,15,9.875,15z"/>
	</g>
</g>
</svg>
