<?xml version="1.0" encoding="utf-8"?>
<!-- Generator: Adobe Illustrator 18.1.1, SVG Export Plug-In . SVG Version: 6.00 Build 0)  -->
<!DOCTYPE svg PUBLIC "-//W3C//DTD SVG 1.1//EN" "http://www.w3.org/Graphics/SVG/1.1/DTD/svg11.dtd">
<svg version="1.1" id="图层_1" xmlns="http://www.w3.org/2000/svg" xmlns:xlink="http://www.w3.org/1999/xlink" x="0px" y="0px"
	 viewBox="0 0 200 200" enable-background="new 0 0 200 200" xml:space="preserve">
<g>
	<path fill="#0C0B0B" d="M99.7,105.3c2.6,0,5.1-1,7.1-2.9L166,43.2v37.1c0,5.5,4.5,10,10,10s10-4.5,10-10v-50c0-11-9-20.3-20-20.3
		h-50c-5.5,0-10,4.5-10,10s4.5,10,10,10h34.9L92.7,88.2c-3.9,3.9-3.9,10.2,0,14.1C94.6,104.3,97.2,105.3,99.7,105.3z"/>
	<path fill="#0C0B0B" d="M180,109.9c-5.5,0-10,4.5-10,10V170H30V30h49.5c5.5,0,10-4.5,10-10s-4.5-10-10-10H30c-11,0-20,9-20,20v140
		c0,11,9,20,20,20h140c11,0,20-9,20-20v-50.1C190,114.4,185.5,109.9,180,109.9z"/>
</g>
</svg>
