<?xml version="1.0" encoding="utf-8"?>
<!-- Generator: Adobe Illustrator 18.1.1, SVG Export Plug-In . SVG Version: 6.00 Build 0)  -->
<!DOCTYPE svg PUBLIC "-//W3C//DTD SVG 1.1//EN" "http://www.w3.org/Graphics/SVG/1.1/DTD/svg11.dtd">
<svg version="1.1" id="图层_1" xmlns="http://www.w3.org/2000/svg" xmlns:xlink="http://www.w3.org/1999/xlink" x="0px" y="0px"
	 viewBox="0 0 200 200" enable-background="new 0 0 200 200" xml:space="preserve">
<g>
	<path fill="#0C0B0B" d="M194.4,129.2l-0.5-0.7l-0.1,0.1c-1.1-1.7-2.2-3-2.9-3.8c-0.9-1-3.6-4-9.3-8.7c-5-4.1-10.6-8.3-14.9-11.1
		c-4.6-3-7.6-5-10.1-6.3l0,0l-3.6-1.8c-4.6-2.3-9.2-2.7-12.2-2.7c-3.2,0-6.3,0.5-9.2,1.5c-5.2,1.8-9.8,5.2-13,9.5
		c-2.4,2.8-4.2,6.1-5.8,8.9c-0.2,0.3-0.4,0.7-0.6,1c-5.2-3.3-10.6-7.3-16.2-12.6c-5-4.8-9-9-12-12.8c0.4-0.2,0.8-0.5,1.2-0.7
		c1-0.6,1.3-0.8,1.7-1c1-0.5,1.9-1,4.6-2.8l1-0.6l0.9-0.7l1.3-1.1l0.7-0.6l0.7-0.7c7.8-7.3,10.3-18.4,6.6-28.4l-0.3-0.9l-0.3-0.9
		l-0.4-0.9c-0.3-0.7-3-6.6-7.1-13.6c-2.5-4.3-5.9-9-8.2-12.1c-7.7-10.1-15.2-14.6-18.1-16c-0.7-0.3-2.1-1-3-1.4
		C61.3,5.7,57.4,5,53.5,5h0c-3.9,0-7.9,0.7-11.8,2.3c-8.2,3.1-13.2,7.2-17.6,10.8l-0.9,0.7C7.2,31.9-1,49.2,1.2,65.1
		c3,21.4,25.9,58.2,51.1,82c25,23.6,63.4,45.1,85.6,47.8c1.8,0.2,3.8,0.4,5.7,0.4c17.4,0,30.3-10,38.5-17.6
		c2.8-2.6,9.7-9.5,13.8-18.2C199.7,151.3,201.3,139,194.4,129.2z M177.8,150.9c-2.1,4.5-6.2,9.1-9.3,12c-7.9,7.3-15.9,12.3-25,12.3
		c-1,0-2.1-0.1-3.2-0.2c-15.6-1.9-50-19.5-74.3-42.5c-24.3-23-42.9-55.5-45-70.2c-1.3-9.4,5.3-20.2,14.8-28
		c4.3-3.6,7.6-6.4,13.2-8.5c1.5-0.6,2.9-1,4.5-1c1.2,0,2.4,0.2,3.8,0.8c0.8,0.3,2.2,1.1,2.2,1.1s5.2,2.4,11.1,10.2
		c2.2,2.9,5,6.9,6.9,10.2c3.6,6.1,6,11.5,6,11.5l0.4,1.3c1,2.5,0.5,5.1-1.6,7.1c-0.2,0.2-0.4,0.4-0.4,0.4l-1.3,1.1
		c-3.3,2.2-2.7,1.6-5.6,3.3c-3.1,1.9-6,2.5-10.9,4.9c-5,2.4-5.6,8.8-4.3,11.8c3.8,8.3,10.4,17.1,22.5,28.5
		c10.4,9.9,20.6,16,28.5,20.5c1.6,0.9,3.2,1.3,4.8,1.3c4.4,0,8.3-3.1,10.1-6.3c1.8-3.2,3.3-6.4,4.5-8.6c2.6-4.6,4-6.4,4.1-6.4
		c0,0,0,0,0,0.1c0.7-1.2,2.1-2.5,3.8-3c0.8-0.3,1.8-0.4,2.8-0.4c1.2,0,2.4,0.2,3.2,0.6l3.6,1.8c0,0,0,0,0,0c0,0,3.3,2,8,5.1
		c4,2.6,9.1,6.5,13.2,9.9c5,4.1,6.9,6.3,6.9,6.3s1.8,2.1,1.7,2.1c0,0,0,0,0,0l0.6,0.9C180.1,143.6,178.9,148.4,177.8,150.9z"/>
	<path fill="#0C0B0B" d="M111.8,56.7c6.7,1.5,12.9,4.8,17.7,9.7c5.4,5.4,8.8,12.1,10,19.6c0.8,4.9,5,8.4,9.9,8.4
		c0.5,0,1.1,0,1.6-0.1c5.5-0.9,9.2-6,8.3-11.5c-1.9-11.6-7.3-22.2-15.6-30.6c-7.6-7.6-17.2-12.8-27.7-15.1
		c-5.4-1.2-10.7,2.3-11.9,7.7C103,50.2,106.4,55.5,111.8,56.7z"/>
	<path fill="#0C0B0B" d="M118,24.6c13.1,2.7,25.1,9.2,34.7,18.7c10.1,10.1,16.7,22.9,19.1,36.9c0.8,4.9,5.1,8.3,9.9,8.3
		c0.6,0,1.1,0,1.7-0.1c5.4-0.9,9.1-6.1,8.2-11.5c-3.1-18.1-11.6-34.6-24.7-47.7C154.5,16.9,139,8.5,122,5
		c-5.4-1.1-10.7,2.4-11.8,7.8C109.1,18.2,112.6,23.5,118,24.6z"/>
</g>
</svg>
