<?xml version="1.0" encoding="utf-8"?>
<!-- Generator: Adobe Illustrator 18.1.1, SVG Export Plug-In . SVG Version: 6.00 Build 0)  -->
<!DOCTYPE svg PUBLIC "-//W3C//DTD SVG 1.1//EN" "http://www.w3.org/Graphics/SVG/1.1/DTD/svg11.dtd">
<svg version="1.1" id="图层_1" xmlns="http://www.w3.org/2000/svg" xmlns:xlink="http://www.w3.org/1999/xlink" x="0px" y="0px"
	 viewBox="0 0 500 500" enable-background="new 0 0 500 500" xml:space="preserve">
<path fill-rule="evenodd" clip-rule="evenodd" fill="#0A0A0A" d="M246.7,0.1C108.6,2-1.8,115.3,0,253.4
	c1.9,137.9,115.3,248.3,253.3,246.5c138-1.9,248.5-115.2,246.6-253.2C498.1,108.7,384.7-1.7,246.7,0.1z M246,402.1h-1.4
	c-21.3-0.6-36.2-16.3-35.7-37.3c0.6-20.5,16-35.5,36.5-35.5l1.3,0.1c21.8,0.6,36.7,16.1,36,37.7C282.1,387.6,267,402.1,246,402.1z
	 M335.4,224.7c-5,7.1-16,15.9-29.8,26.7l-15.3,10.6c-8.4,6.5-13.4,12.6-15.3,18.6c-1.5,4.8-2.2,6-2.4,15.7l0,2.5h-58.2l0.2-4.9
	c0.7-20.3,1.2-32.2,9.6-42c13.2-15.4,42.3-34.2,43.5-34.9c4.2-3.2,7.7-6.7,10.3-10.5c6.1-8.4,8.8-15.1,8.8-21.6c0-9-2.7-17.4-8-24.8
	c-5.1-7.2-14.8-10.8-28.8-10.8c-13.9,0-23.4,4.4-29.1,13.5c-5.9,9.3-8.8,19.1-8.8,29.1v2.5h-60.1l0.1-2.6
	c1.6-36.8,14.7-63.2,39-78.7c15.3-9.9,34.3-14.9,56.5-14.9c29,0,53.6,7.1,72.9,21c19.6,14.1,29.5,35.2,29.5,62.8
	C349.8,197.1,345,211.6,335.4,224.7L335.4,224.7z"/>
</svg>
