<?xml version="1.0" encoding="utf-8"?>
<!-- Generator: Adobe Illustrator 18.1.1, SVG Export Plug-In . SVG Version: 6.00 Build 0)  -->
<!DOCTYPE svg PUBLIC "-//W3C//DTD SVG 1.1//EN" "http://www.w3.org/Graphics/SVG/1.1/DTD/svg11.dtd">
<svg version="1.1" id="图层_1" xmlns="http://www.w3.org/2000/svg" xmlns:xlink="http://www.w3.org/1999/xlink" x="0px" y="0px"
	 viewBox="0 0 14 14" enable-background="new 0 0 14 14" xml:space="preserve">
<path d="M2.8,5.5c0.6-1.7,2.3-3,4.2-3c0.9,0,1.6,0.2,2.3,0.7L8.5,4.6L13,6.9C12.9,3.6,10.3,1,7,1C4.4,1,2.2,2.7,1.3,5
	C1.6,6.1,2.5,5.9,2.8,5.5L2.8,5.5z M11.2,8.6c-0.6,1.7-2.3,2.9-4.2,2.9c-0.9,0-1.7-0.3-2.4-0.7l0.7-1.2L1,7.1C1.1,10.4,3.7,13,7,13
	c2.6,0,4.9-1.7,5.7-4C12.9,8.2,11.7,7.3,11.2,8.6L11.2,8.6z M11.2,8.6"/>
</svg>
