<?xml version="1.0" encoding="utf-8"?>
<!-- Generator: Adobe Illustrator 18.1.1, SVG Export Plug-In . SVG Version: 6.00 Build 0)  -->
<!DOCTYPE svg PUBLIC "-//W3C//DTD SVG 1.1//EN" "http://www.w3.org/Graphics/SVG/1.1/DTD/svg11.dtd">
<svg version="1.1" id="图层_1" xmlns="http://www.w3.org/2000/svg" xmlns:xlink="http://www.w3.org/1999/xlink" x="0px" y="0px"
	 viewBox="0 0 500 500" enable-background="new 0 0 500 500" xml:space="preserve">
<path fill="#0C0C0C" d="M286,38.8V0L141.9,89.3L286,178.6v-67.1c72,16.3,126.1,80.1,126.1,156.4c0,88.6-72.7,160.7-162.1,160.7
	c-89.4,0-162.1-72.1-162.1-160.7c0-19.8-16.1-35.7-36-35.7c-19.9,0-36,16-36,35.7c0,128,105,232.1,234.1,232.1
	s234.1-104.1,234.1-232.1C484.1,152,398,56,286,38.8L286,38.8z M286,38.8"/>
</svg>
