<?xml version="1.0" encoding="utf-8"?>
<!-- Generator: Adobe Illustrator 18.1.1, SVG Export Plug-In . SVG Version: 6.00 Build 0)  -->
<!DOCTYPE svg PUBLIC "-//W3C//DTD SVG 1.1//EN" "http://www.w3.org/Graphics/SVG/1.1/DTD/svg11.dtd">
<svg version="1.1" id="图层_1" xmlns="http://www.w3.org/2000/svg" xmlns:xlink="http://www.w3.org/1999/xlink" x="0px" y="0px"
	 viewBox="0 0 200 200" enable-background="new 0 0 200 200" xml:space="preserve">
<g>
	<path fill="#0C0B0B" d="M168.8,199c-8,0-15.6-3.1-21.2-8.8l-52.7-52.7c-7.9,2.9-16.3,4.4-24.7,4.4c-18.6,0-36-7.1-48.9-20.1
		C-1.6,99-2.4,65.4,6.4,43.8c1.3-3.1,4-5.3,7.3-6c3.2-0.7,6.7,0.4,9,2.7l20.6,20.6L57.5,47L36.8,26.3c-2.2-2.2-3.3-5.3-2.8-8.4
		c0.4-3.1,2.2-5.8,5-7.4C67.1-5.5,96-1,120.1,23.1c19.3,19.3,25.6,46.8,17,71.8l53,53c11.7,11.7,11.7,30.7,0,42.4
		C184.4,195.9,176.9,199,168.8,199z M97.2,115.7c2.6,0,5.2,1,7.1,2.9l57.4,57.4c3.7,3.7,10.4,3.8,14.2,0c3.9-3.9,3.9-10.2,0-14.1
		l-57.6-57.6c-3-3-3.8-7.5-2-11.3c8.7-18.9,4.7-40.8-10.3-55.8c-14.1-14-28.9-19-44.6-14.6l17.4,17.4c1.9,1.9,2.9,4.4,2.9,7.1
		s-1.1,5.2-2.9,7.1L50.4,82.4c-1.9,1.9-4.4,2.9-7.1,2.9l0,0c-2.7,0-5.2-1.1-7.1-2.9L21.3,67.4c-0.9,13.8,3.1,29.2,14.1,40.3
		C44.6,116.9,57,122,70.2,122c7.8,0,15.6-1.8,22.7-5.2C94.3,116.1,95.8,115.7,97.2,115.7z"/>
</g>
</svg>
