<?xml version="1.0" encoding="utf-8"?>
<!-- Generator: Adobe Illustrator 18.1.1, SVG Export Plug-In . SVG Version: 6.00 Build 0)  -->
<!DOCTYPE svg PUBLIC "-//W3C//DTD SVG 1.1//EN" "http://www.w3.org/Graphics/SVG/1.1/DTD/svg11.dtd">
<svg version="1.1" id="图层_1" xmlns="http://www.w3.org/2000/svg" xmlns:xlink="http://www.w3.org/1999/xlink" x="0px" y="0px"
	 viewBox="0 0 18 18" enable-background="new 0 0 18 18" xml:space="preserve">
<path fill="#111010" d="M8.7,3.4H7v3.4H3.5v1.7H7v3.4h1.6V8.4h3.7V6.7H8.7V3.4z M17.6,16l-3.7-3.5c1.2-1.3,1.9-3.1,1.9-4.9
	c0-4.2-3.5-7.6-7.9-7.6C3.6,0,0,3.4,0,7.6c0,4.2,3.5,7.6,7.9,7.6c1.5,0,2.9-0.4,4.1-1.1l3.8,3.6c0,0,0.9,0.8,1.8,0
	C18.5,16.8,17.6,16,17.6,16L17.6,16z M1.7,7.6c0-3.3,2.8-5.9,6.2-5.9c3.4,0,6.2,2.6,6.2,5.9c0,3.3-2.8,5.9-6.2,5.9
	C4.5,13.5,1.7,10.9,1.7,7.6L1.7,7.6z M1.7,7.6"/>
</svg>
