<?xml version="1.0" encoding="utf-8"?>
<!-- Generator: Adobe Illustrator 18.1.1, SVG Export Plug-In . SVG Version: 6.00 Build 0)  -->
<!DOCTYPE svg PUBLIC "-//W3C//DTD SVG 1.1//EN" "http://www.w3.org/Graphics/SVG/1.1/DTD/svg11.dtd">
<svg version="1.1" id="图层_1" xmlns="http://www.w3.org/2000/svg" xmlns:xlink="http://www.w3.org/1999/xlink" x="0px" y="0px"
	 viewBox="0 0 18 18" enable-background="new 0 0 18 18" xml:space="preserve">
<path fill="#261C1C" d="M12.3,8.4V6.7H3.5v1.7H12.3z M17.6,16l-3.7-3.5c1.2-1.3,1.9-3.1,1.9-5c0-4.2-3.5-7.6-7.9-7.6S0,3.4,0,7.6
	c0,4.2,3.5,7.6,7.9,7.6c1.5,0,2.9-0.4,4.1-1.1l3.8,3.6c0,0,0.9,0.8,1.8,0C18.5,16.8,17.6,16,17.6,16L17.6,16z M1.7,7.6
	c0-3.3,2.8-5.9,6.2-5.9s6.2,2.7,6.2,5.9c0,3.3-2.8,5.9-6.2,5.9S1.7,10.9,1.7,7.6L1.7,7.6z M1.7,7.6"/>
</svg>
