<?xml version="1.0" encoding="utf-8"?>
<!-- Generator: Adobe Illustrator 18.1.1, SVG Export Plug-In . SVG Version: 6.00 Build 0)  -->
<!DOCTYPE svg PUBLIC "-//W3C//DTD SVG 1.1//EN" "http://www.w3.org/Graphics/SVG/1.1/DTD/svg11.dtd">
<svg version="1.1" id="图层_1" xmlns="http://www.w3.org/2000/svg" xmlns:xlink="http://www.w3.org/1999/xlink" x="0px" y="0px"
	 viewBox="0 0 200 200" enable-background="new 0 0 200 200" xml:space="preserve">
<g>
	<path fill-rule="evenodd" clip-rule="evenodd" fill="#0C0B0B" d="M170.6,3H29.4C18.7,3,10,11.8,10,22.5v121.3
		c0,10.7,8.7,19.3,19.4,19.3H80v14H52.3c-5.5,0-10,4.5-10,10s4.5,10,10,10h100c5.5,0,10-4.5,10-10s-4.5-10-10-10H120v-14h50.6
		c10.7,0,19.4-8.6,19.4-19.3V22.5C190,11.8,181.3,3,170.6,3z M170,143.1l-140,0.6L29.4,23.1L170,22.5V143.1z"/>
	<path fill-rule="evenodd" clip-rule="evenodd" fill="#0C0B0B" d="M52.3,77h70c0.4,0,0.9,0,1.3,0H157l-34-34.1V57c0,0-0.4,0-0.7,0
		h-70c-5.5,0-10,4.5-10,10S46.8,77,52.3,77z"/>
	<path fill-rule="evenodd" clip-rule="evenodd" fill="#0C0B0B" d="M142.3,97h-70c-0.4,0-0.7,0-1.1,0H43l34,34v-14h65.3
		c5.5,0,10-4.5,10-10S147.9,97,142.3,97z"/>
</g>
</svg>
