<?xml version="1.0" encoding="utf-8"?>
<!-- Generator: Adobe Illustrator 18.1.1, SVG Export Plug-In . SVG Version: 6.00 Build 0)  -->
<!DOCTYPE svg PUBLIC "-//W3C//DTD SVG 1.1//EN" "http://www.w3.org/Graphics/SVG/1.1/DTD/svg11.dtd">
<svg version="1.1" id="图层_1" xmlns="http://www.w3.org/2000/svg" xmlns:xlink="http://www.w3.org/1999/xlink" x="0px" y="0px"
	 viewBox="0 0 20 20" enable-background="new 0 0 20 20" xml:space="preserve">
<g>
	<g>
		<path fill="#272636" d="M10,19.7c-5.1,0-9.2-4.1-9.2-9.2c0-3.4,1.8-6.5,4.8-8.1c0.5-0.3,1.1-0.1,1.4,0.4C7.2,3.3,7,3.9,6.5,4.2
			c-2.3,1.3-3.8,3.7-3.8,6.3c0,4,3.2,7.2,7.2,7.2s7.2-3.2,7.2-7.2c0-2.7-1.5-5.1-3.8-6.4c-0.5-0.3-0.7-0.9-0.4-1.3
			c0.3-0.5,0.9-0.7,1.3-0.4c3,1.6,4.9,4.7,4.9,8.1C19.2,15.6,15.1,19.7,10,19.7z"/>
	</g>
	<g>
		<path fill="#272636" d="M10,10.4c-0.5,0-1-0.4-1-1V1.3c0-0.5,0.4-1,1-1c0.6,0,1,0.4,1,1v8.1C11,9.9,10.6,10.4,10,10.4z"/>
	</g>
</g>
</svg>
