<?xml version="1.0" encoding="utf-8"?>
<!-- Generator: Adobe Illustrator 17.0.0, SVG Export Plug-In . SVG Version: 6.00 Build 0)  -->
<!DOCTYPE svg PUBLIC "-//W3C//DTD SVG 1.1//EN" "http://www.w3.org/Graphics/SVG/1.1/DTD/svg11.dtd">
<svg version="1.1" id="图层_1" xmlns="http://www.w3.org/2000/svg" xmlns:xlink="http://www.w3.org/1999/xlink" x="0px" y="0px"
	 width="27px" height="18px" viewBox="86.5 91 27 18" enable-background="new 86.5 91 27 18" xml:space="preserve">
<g>
	<path fill-rule="evenodd" clip-rule="evenodd" d="M107,99h6c0.276,0,0.5,0.224,0.5,0.5s-0.224,0.5-0.5,0.5h-6
		c-0.276,0-0.5-0.224-0.5-0.5S106.724,99,107,99z"/>
	<path fill-rule="evenodd" clip-rule="evenodd" d="M107.222,94.738l5.004-3.311c0.23-0.152,0.541-0.089,0.693,0.141
		c0.152,0.23,0.089,0.541-0.141,0.693l-5.004,3.311c-0.23,0.152-0.541,0.089-0.693-0.141
		C106.929,95.201,106.992,94.891,107.222,94.738z"/>
	<path fill-rule="evenodd" clip-rule="evenodd" d="M106.722,103.851l5.004,3.071c0.23,0.141,0.541,0.083,0.693-0.131
		c0.152-0.214,0.089-0.501-0.141-0.643l-5.004-3.071c-0.23-0.141-0.541-0.083-0.693,0.131S106.492,103.71,106.722,103.851z"/>
	<path fill-rule="evenodd" clip-rule="evenodd" d="M103.375,106.733l-5.062-3.4h-4.5v4.533c0,0.626-0.504,1.133-1.125,1.133H91
		c-0.621,0-1.125-0.507-1.125-1.133v-4.533c0-0.037,0.007-0.072,0.011-0.108c-1.945-0.375-3.386-1.743-3.386-3.859
		c0-2.504,2.015-3.967,4.5-3.967h7.312l5.062-3.4c0.621,0,1.125,0.507,1.125,1.133V105.6
		C104.5,106.226,103.996,106.733,103.375,106.733z M91,107.3c0,0.313,0.252,0.567,0.562,0.567h0.562
		c0.311,0,0.562-0.254,0.562-0.567v-3.967c-0.281,0-0.814,0-1.125,0H91V107.3z M91,96.533c-1.155-0.037-3.375,0.329-3.375,2.833
		S89.882,102.2,91,102.2h4.5v-5.667H91z M98.313,101.022c0-0.033,0-0.068,0-0.094c0-0.492,0,0.091,0-0.995c0-0.155,0-0.334,0-0.567
		c0-2.504,0,0.031,0-2.833h-1.688v5.667h1.688C98.313,101.583,98.313,101.234,98.313,101.022z M103.375,104.183V94.55
		c0-0.469,0-0.726,0-1.417l-3.938,2.833c0,0.518,0,0.664,0,1.133v4.533c0,0.469,0,0.221,0,1.133l3.938,2.833
		C103.375,104.962,103.375,104.653,103.375,104.183z"/>
</g>
</svg>
