<?xml version="1.0" encoding="utf-8"?>
<!-- Generator: Adobe Illustrator 18.1.1, SVG Export Plug-In . SVG Version: 6.00 Build 0)  -->
<!DOCTYPE svg PUBLIC "-//W3C//DTD SVG 1.1//EN" "http://www.w3.org/Graphics/SVG/1.1/DTD/svg11.dtd">
<svg version="1.1" id="图层_1" xmlns="http://www.w3.org/2000/svg" xmlns:xlink="http://www.w3.org/1999/xlink" x="0px" y="0px"
	 viewBox="0 0 200 200" enable-background="new 0 0 200 200" xml:space="preserve">
<g>
	<path fill="#0C0B0B" d="M183.4,86.6c-3.9-3.9-10.2-3.9-14.1,0l-67.1,67.1l-31.7-31.6c-3.9-3.9-10.2-3.9-14.1,0s-3.9,10.2,0,14.1
		L88,167.9c3.8,3.8,8.8,5.9,14.2,5.9s10.4-2.1,14.1-5.8l67.1-67.1C187.3,96.8,187.3,90.5,183.4,86.6z"/>
	<path fill="#0C0B0B" d="M170,10H30c-11,0-20,9-20,20v140c0,11,9,20,20,20h33.9c5.5,0,10-4.5,10-10s-4.5-10-10-10H30V30h140v38.2
		c0,5.5,4.5,10,10,10s10-4.5,10-10V30C190,19,181,10,170,10z"/>
	<path fill="#0C0B0B" d="M180,134.4c-5.5,0-10,4.5-10,10V170h-27.3c-5.5,0-10,4.5-10,10s4.5,10,10,10H170c11,0,20-9,20-20v-25.6
		C190,138.8,185.5,134.4,180,134.4z"/>
</g>
</svg>
