<?xml version="1.0" encoding="utf-8"?>
<!-- Generator: Adobe Illustrator 18.1.1, SVG Export Plug-In . SVG Version: 6.00 Build 0)  -->
<!DOCTYPE svg PUBLIC "-//W3C//DTD SVG 1.1//EN" "http://www.w3.org/Graphics/SVG/1.1/DTD/svg11.dtd">
<svg version="1.1" id="图层_1" xmlns="http://www.w3.org/2000/svg" xmlns:xlink="http://www.w3.org/1999/xlink" x="0px" y="0px"
	 viewBox="0 0 500 500" enable-background="new 0 0 500 500" xml:space="preserve">
<path d="M250.1,35.2c116.5,0,212.6,94.8,214.2,211.4C465,303.8,443.5,358,403.5,399c-39.9,41-93.4,64-150.7,64.8l-2.9,0
	c-116.5,0-212.6-94.8-214.2-211.4C34.2,134.2,129,36.8,247.2,35.2L250.1,35.2 M250.1-0.5c-1.1,0-2.3,0-3.4,0
	C108.6,1.4-1.8,114.8,0,252.9c1.8,136.9,113.4,246.6,249.9,246.6c1.1,0,2.3,0,3.4,0c138-1.9,248.5-115.3,246.6-253.3
	C498.2,109.3,386.6-0.5,250.1-0.5L250.1-0.5z"/>
<g>
	<polygon points="376.1,161.3 338.2,123.4 250,211.6 161.8,123.4 123.9,161.3 212.1,249.5 123.9,337.7 161.8,375.6 250,287.4 
		338.2,375.6 376.1,337.7 287.9,249.5 	"/>
</g>
</svg>
