<?xml version="1.0" encoding="utf-8"?>
<!-- Generator: Adobe Illustrator 17.0.0, SVG Export Plug-In . SVG Version: 6.00 Build 0)  -->
<!DOCTYPE svg PUBLIC "-//W3C//DTD SVG 1.1//EN" "http://www.w3.org/Graphics/SVG/1.1/DTD/svg11.dtd">
<svg version="1.1" id="图层_1" xmlns="http://www.w3.org/2000/svg" xmlns:xlink="http://www.w3.org/1999/xlink" x="0px" y="0px"
	 width="20px" height="20px" viewBox="0 0 20 20" enable-background="new 0 0 20 20" xml:space="preserve">
<g>
	<g>
		<path fill="#0C0B0B" d="M3,15.03c-0.553,0-1-0.447-1-1v-12c0-0.553,0.447-1,1-1s1,0.447,1,1v12C4,14.583,3.553,15.03,3,15.03z"/>
	</g>
	<g>
		<path fill="#0C0B0B" d="M10,9.03c-0.553,0-1-0.447-1-1v-6c0-0.553,0.447-1,1-1s1,0.447,1,1v6C11,8.583,10.553,9.03,10,9.03z"/>
	</g>
	<g>
		<path fill="#0C0B0B" d="M10.322,19c-0.002,0-0.004,0-0.006,0c-0.553,0-0.997-0.439-0.994-0.991l0.031-5.2
			c0.004-0.553,0.442-0.986,1.006-0.99c0.553,0.003,0.997,0.456,0.994,1.008l-0.031,5.194C11.319,18.571,10.872,19,10.322,19z"/>
	</g>
	<g>
		<path fill="#0C0B0B" d="M17,19.03c-0.553,0-1-0.447-1-1v-11c0-0.553,0.447-1,1-1s1,0.447,1,1v11C18,18.583,17.553,19.03,17,19.03z
			"/>
	</g>
	<g>
		<path fill="#0C0B0B" d="M3,19.238c-1.654,0-3-1.346-3-3s1.346-3,3-3s3,1.346,3,3S4.654,19.238,3,19.238z M3,15.238
			c-0.552,0-1,0.448-1,1s0.448,1,1,1s1-0.448,1-1S3.552,15.238,3,15.238z"/>
	</g>
	<g>
		<path fill="#0C0B0B" d="M10,13.238c-1.654,0-3-1.346-3-3s1.346-3,3-3s3,1.346,3,3S11.654,13.238,10,13.238z M10,9.238
			c-0.552,0-1,0.448-1,1s0.448,1,1,1s1-0.448,1-1S10.552,9.238,10,9.238z"/>
	</g>
	<g>
		<path fill="#0C0B0B" d="M17,7.238c-1.654,0-3-1.346-3-3s1.346-3,3-3s3,1.346,3,3S18.654,7.238,17,7.238z M17,3.238
			c-0.552,0-1,0.448-1,1s0.448,1,1,1s1-0.448,1-1S17.552,3.238,17,3.238z"/>
	</g>
</g>
</svg>
