<?xml version="1.0" encoding="utf-8"?>
<!-- Generator: Adobe Illustrator 17.0.0, SVG Export Plug-In . SVG Version: 6.00 Build 0)  -->
<!DOCTYPE svg PUBLIC "-//W3C//DTD SVG 1.1//EN" "http://www.w3.org/Graphics/SVG/1.1/DTD/svg11.dtd">
<svg version="1.1" id="图层_1" xmlns="http://www.w3.org/2000/svg" xmlns:xlink="http://www.w3.org/1999/xlink" x="0px" y="0px"
	 width="17.81px" height="17px" viewBox="0 0 17.81 17" enable-background="new 0 0 17.81 17" xml:space="preserve">
<g>
	<g>
		<path fill-rule="evenodd" clip-rule="evenodd" fill="#231F20" d="M17.81,17h-2.111c-0.485-3.326-3.335-5.882-6.789-5.882
			S2.606,13.674,2.121,17H0.01c0.41-3.675,3.003-6.683,6.47-7.658C4.959,8.486,3.919,6.873,3.919,5c0-2.761,2.234-5,4.991-5
			s4.991,2.239,4.991,5c0,1.873-1.04,3.486-2.561,4.342C14.807,10.317,17.4,13.325,17.81,17z M11.905,5c0-1.657-1.341-3-2.994-3
			S5.916,3.343,5.916,5S7.256,8,8.91,8S11.905,6.657,11.905,5z"/>
	</g>
</g>
</svg>
