<?xml version="1.0" encoding="utf-8"?>
<!-- Generator: Adobe Illustrator 18.1.1, SVG Export Plug-In . SVG Version: 6.00 Build 0)  -->
<!DOCTYPE svg PUBLIC "-//W3C//DTD SVG 1.1//EN" "http://www.w3.org/Graphics/SVG/1.1/DTD/svg11.dtd">
<svg version="1.1" id="图层_1" xmlns="http://www.w3.org/2000/svg" xmlns:xlink="http://www.w3.org/1999/xlink" x="0px" y="0px"
	 viewBox="0 0 200 200" enable-background="new 0 0 200 200" xml:space="preserve">
<g>
	<path fill="#0C0B0B" d="M96,5.7c-2.7,0-6.7,0.9-10.9,4.9L45,49.2c-2.1,2-7.3,3.8-10.1,3.8H20C9.1,53,0,62.4,0,73.3v59.4
		C0,143.5,9.1,152,20,152h15.7c3.1,0,8.6,2.3,10.9,4.3l38.6,33.6c4.1,3.6,8,4.4,10.6,4.4c4.4,0,8.3-2.1,10.7-5.8
		c1.7-2.6,2.6-5.7,2.6-9.4V20.8C109,10.4,102.3,5.7,96,5.7z M89.2,167.3l-29.7-25.6c-6-5.2-16-8.7-23.8-8.7H20V73h14.9
		c8.1,0,18.1-3.9,23.9-9.5l30.4-29.3L89.2,167.3z"/>
	<path fill="#0C0B0B" d="M129.8,67.6c-4.5-3.1-10.7-1.9-13.7,2.6s-1.9,10.7,2.6,13.7c6.9,4.7,11,12.4,11,20.7c0,7.2-3.1,14-8.5,18.7
		c-4.1,3.6-4.5,9.9-0.9,14c2,2.2,4.7,3.3,7.4,3.3c2.3,0,4.7-0.8,6.5-2.5c9.6-8.5,15.1-20.7,15.1-33.6
		C149.5,89.8,142.1,75.9,129.8,67.6z"/>
	<path fill="#0C0B0B" d="M154.5,24.2c-4.8-2.6-10.8-0.9-13.4,3.9c-2.6,4.8-0.9,10.8,3.9,13.4c21.6,11.9,35,34.6,35,59.2
		c0,24.4-13.2,47-34.5,59c-4.8,2.7-6.5,8.7-3.8,13.5c1.8,3.2,5.2,5.1,8.6,5.1c1.6,0,3.3-0.4,4.8-1.3c27.5-15.4,44.7-44.7,44.7-76.2
		C199.8,68.9,182.4,39.5,154.5,24.2z"/>
</g>
</svg>
