<?xml version="1.0" encoding="utf-8"?>
<!-- Generator: Adobe Illustrator 18.1.1, SVG Export Plug-In . SVG Version: 6.00 Build 0)  -->
<!DOCTYPE svg PUBLIC "-//W3C//DTD SVG 1.1//EN" "http://www.w3.org/Graphics/SVG/1.1/DTD/svg11.dtd">
<svg version="1.1" id="图层_1" xmlns="http://www.w3.org/2000/svg" xmlns:xlink="http://www.w3.org/1999/xlink" x="0px" y="0px"
	 viewBox="0 0 200 200" enable-background="new 0 0 200 200" xml:space="preserve">
<g>
	<path fill="#0C0B0B" d="M123.3,149.8c-5.2,0-9.3,4-9.7,9.1l-27.3-20.8c-6.2-4.7-16.2-8.1-24-8.1H53V79.8c0-5.5-4.5-10-10-10
		s-10,4.5-10,10v50c0,11,9.7,20.2,20.7,20.2h8.7c3.3,0,9.2,1.9,11.8,3.9l35.4,27.3c3.3,2.5,6.9,3.8,10.3,3.8c2,0,3.7-0.5,5.6-1.4
		c4.9-2.4,7.5-7.7,7.5-14v-9.7C133,154.3,128.9,149.8,123.3,149.8z"/>
	<path fill="#0C0B0B" d="M101.8,59.4L113,47.9v21.9c0,5.5,4.5,10,10,10s10-4.5,10-10V33.9c0-9.7-5.4-13.2-7.9-14.2
		c-2.5-1-8.8-2.7-15.7,4.2L88,45.2c-3.9,3.9-4,10.2-0.2,14.1C91.7,63.2,97.9,63.3,101.8,59.4z"/>
	<path fill="#0C0B0B" d="M192,177.9L22.1,8C18.2,4.1,11.9,4.1,8,8S4.1,18.2,8,22.1L177.9,192c2,2,4.5,2.9,7.1,2.9s5.1-1,7.1-2.9
		C195.9,188.1,195.9,181.8,192,177.9z"/>
</g>
</svg>
