<?xml version="1.0" encoding="utf-8"?>
<!-- Generator: Adobe Illustrator 18.1.1, SVG Export Plug-In . SVG Version: 6.00 Build 0)  -->
<!DOCTYPE svg PUBLIC "-//W3C//DTD SVG 1.1//EN" "http://www.w3.org/Graphics/SVG/1.1/DTD/svg11.dtd">
<svg version="1.1" id="图层_1" xmlns="http://www.w3.org/2000/svg" xmlns:xlink="http://www.w3.org/1999/xlink" x="0px" y="0px"
	 viewBox="0 0 200 200" enable-background="new 0 0 200 200" xml:space="preserve">
<g>
	<path fill="#0C0B0B" d="M119.4,145.8c29.4-10.1,50.5-38.1,50.5-70.8C170,33.6,136.3,0,95,0C53.7,0,20.1,33.6,20.1,74.9
		c0,32.8,21.2,60.7,50.5,70.8l-29.5,29.5c-6.9,6.9-5.2,13.2-4.2,15.7c1,2.5,4.5,8,14.2,8h87.8c9.8,0,13.2-5.6,14.2-8
		c1-2.5,2.7-8.9-4.2-15.8L119.4,145.8z M40,74.9c0-30.3,24.7-55,55-55c30.3,0,55,24.7,55,55c0,30.2-24.4,54.7-54.5,55
		c-0.3,0-0.6,0-0.9,0C64.5,129.7,40,105.1,40,74.9z M65.2,179.4l29.5-29.5c0.1,0,0.2,0,0.2,0s0.2,0,0.2,0l29.5,29.5L65.2,179.4z"/>
	<path fill="#0C0B0B" d="M95,106.5c14.4,0,26.2-11.7,26.2-26.2S109.4,54.2,95,54.2S68.8,65.9,68.8,80.4S80.6,106.5,95,106.5z
		 M95,74.2c3.4,0,6.2,2.8,6.2,6.2s-2.8,6.2-6.2,6.2s-6.2-2.8-6.2-6.2S91.6,74.2,95,74.2z"/>
</g>
</svg>
